<?xml version="1.0" encoding="utf-8"?>
<!-- Generator: Adobe Illustrator 27.9.0, SVG Export Plug-In . SVG Version: 6.00 Build 0)  -->
<svg version="1.1" id="textblock" xmlns:svgjs="http://svgjs.dev/svgjs"
	 xmlns="http://www.w3.org/2000/svg" xmlns:xlink="http://www.w3.org/1999/xlink" x="0px" y="0px" viewBox="0 0 27.3 10.1"
	 style="enable-background:new 0 0 27.3 10.1;" xml:space="preserve">
<style type="text/css">
	.st0{fill:#FFFFFF;}
	.st1{fill:none;stroke:#172041;stroke-width:0.5417;stroke-miterlimit:10;}
	.st2{fill:#172041;}
	.st3{display:none;fill:none;}
</style>
<rect x="0.9" class="st0" width="25.6" height="10.1"/>
<g id="tight-bounds" transform="matrix(1,0,0,1,0.2400000000000091,0.13612274445719663)">
	<rect x="1.5" y="1.3" class="st1" width="23.8" height="5.7"/>
	<rect x="1.2" y="7.1" class="st2" width="24.3" height="1.8"/>
	<g>
		<g transform="matrix(1,0,0,1,23.607599999999998,23.6076)">
			<path id="text-0" class="st2" d="M-20.7-18.2l0.3-0.1c0,0,0-0.1,0-0.2s0-0.3,0-0.5l0,0v-0.8c0-0.2,0-0.4,0-0.5s0-0.2,0-0.2l0,0
				l-0.3-0.1l0-0.2h1.3c0.3,0,0.6,0.1,0.7,0.2c0.2,0.1,0.2,0.3,0.2,0.5l0,0c0,0.2-0.1,0.3-0.2,0.4c-0.1,0.1-0.3,0.2-0.6,0.2l0,0v0
				c0.3,0,0.5,0.1,0.7,0.2s0.2,0.3,0.2,0.5l0,0c0,0.3-0.1,0.5-0.3,0.6c-0.2,0.1-0.5,0.2-0.9,0.2l0,0h-1.2L-20.7-18.2z M-19.8-20v1.1
				c0,0.1,0,0.3,0,0.4c0,0.1,0,0.2,0,0.2l0,0c0,0,0.1,0,0.1,0c0.1,0,0.1,0,0.2,0l0,0c0.2,0,0.3,0,0.4-0.1c0.1-0.1,0.2-0.2,0.2-0.4
				l0,0c0-0.2-0.1-0.3-0.2-0.4s-0.3-0.1-0.5-0.1l0,0c-0.1,0-0.1,0-0.2,0c0,0-0.1,0-0.1,0l0,0v-0.3c0,0,0.1,0,0.1,0c0,0,0.1,0,0.1,0
				l0,0c0.2,0,0.3,0,0.4-0.1s0.1-0.2,0.1-0.4l0,0c0-0.1,0-0.3-0.1-0.4c-0.1-0.1-0.2-0.1-0.4-0.1l0,0h-0.2c0,0,0,0.1,0,0.2
				C-19.8-20.2-19.8-20.1-19.8-20L-19.8-20z M-15.5-18.8l-0.2,0.8c-0.1,0-0.2,0-0.2,0c-0.1,0-0.2,0-0.2,0c-0.1,0-0.1,0-0.2,0l0,0
				h-1.5l0-0.2l0.3-0.1c0,0,0-0.1,0-0.1c0-0.1,0-0.2,0-0.3c0-0.1,0-0.2,0-0.3l0,0v-0.8c0-0.1,0-0.2,0-0.4c0-0.1,0-0.2,0-0.3
				c0-0.1,0-0.1,0-0.1l0,0l-0.3-0.1l0-0.2h1.3l0,0.2l-0.4,0.1c0,0,0,0,0,0.1c0,0.1,0,0.1,0,0.3s0,0.2,0,0.4l0,0v0.8
				c0,0.2,0,0.3,0,0.4c0,0.1,0,0.2,0,0.2l0,0c0.1,0,0.1,0,0.2,0c0.1,0,0.1,0,0.2,0l0,0h0.2c0.1,0,0.1,0,0.2,0c0.1,0,0.1,0,0.1,0l0,0
				l0.3-0.5L-15.5-18.8z M-14.1-18h-1.2l0-0.2l0.3-0.1c0,0,0-0.1,0-0.1c0-0.1,0-0.1,0-0.3c0-0.1,0-0.2,0-0.4l0,0v-0.8
				c0-0.1,0-0.3,0-0.4c0-0.1,0-0.2,0-0.3c0-0.1,0-0.1,0-0.1l0,0l-0.3-0.1l0-0.2h1.2l0,0.2l-0.3,0.1c0,0,0,0.1,0,0.1s0,0.1,0,0.3
				c0,0.1,0,0.2,0,0.4l0,0v0.8c0,0.1,0,0.2,0,0.4s0,0.2,0,0.3c0,0.1,0,0.1,0,0.1l0,0l0.3,0.1L-14.1-18z M-12.8-18L-12.8-18
				c-0.1,0-0.3,0-0.4-0.1c-0.2,0-0.3-0.1-0.4-0.1l0,0l0-0.7l0.3,0l0.2,0.5c0.1,0,0.1,0.1,0.2,0.1c0.1,0,0.2,0,0.3,0l0,0
				c0.1,0,0.3,0,0.3-0.1c0.1-0.1,0.1-0.2,0.1-0.3l0,0c0-0.1,0-0.2-0.1-0.3c-0.1-0.1-0.2-0.1-0.3-0.2s-0.2-0.1-0.3-0.1
				c-0.1,0-0.2-0.1-0.3-0.2c-0.1-0.1-0.2-0.2-0.3-0.3c-0.1-0.1-0.1-0.2-0.1-0.4l0,0c0-0.2,0-0.3,0.1-0.4c0.1-0.1,0.2-0.2,0.4-0.3
				c0.2-0.1,0.4-0.1,0.6-0.1l0,0c0.1,0,0.2,0,0.2,0c0.1,0,0.2,0,0.2,0c0.1,0,0.1,0,0.2,0.1l0,0l0,0.7l-0.3,0l-0.1-0.4
				c-0.1-0.1-0.2-0.1-0.4-0.1l0,0c-0.1,0-0.3,0-0.3,0.1c-0.1,0.1-0.1,0.2-0.1,0.3l0,0c0,0.1,0,0.2,0.1,0.3s0.2,0.1,0.3,0.2
				c0.1,0.1,0.2,0.1,0.3,0.2c0.1,0.1,0.2,0.1,0.3,0.2c0.1,0.1,0.2,0.1,0.3,0.2c0.1,0.1,0.1,0.2,0.1,0.4l0,0c0,0.2,0,0.3-0.1,0.4
				c-0.1,0.1-0.2,0.2-0.4,0.3C-12.3-18-12.5-18-12.8-18z M-10.4-18L-10.4-18c-0.1,0-0.3,0-0.4-0.1c-0.2,0-0.3-0.1-0.4-0.1l0,0l0-0.7
				l0.3,0l0.2,0.5c0.1,0,0.1,0.1,0.2,0.1c0.1,0,0.2,0,0.3,0l0,0c0.1,0,0.3,0,0.3-0.1c0.1-0.1,0.1-0.2,0.1-0.3l0,0
				c0-0.1,0-0.2-0.1-0.3c-0.1-0.1-0.2-0.1-0.3-0.2s-0.2-0.1-0.3-0.1c-0.1,0-0.2-0.1-0.3-0.2c-0.1-0.1-0.2-0.2-0.3-0.3
				c-0.1-0.1-0.1-0.2-0.1-0.4l0,0c0-0.2,0-0.3,0.1-0.4c0.1-0.1,0.2-0.2,0.4-0.3c0.2-0.1,0.4-0.1,0.6-0.1l0,0c0.1,0,0.2,0,0.2,0
				c0.1,0,0.2,0,0.2,0c0.1,0,0.1,0,0.2,0.1l0,0l0,0.7l-0.3,0l-0.1-0.4c-0.1-0.1-0.2-0.1-0.4-0.1l0,0c-0.1,0-0.3,0-0.3,0.1
				c-0.1,0.1-0.1,0.2-0.1,0.3l0,0c0,0.1,0,0.2,0.1,0.3s0.2,0.1,0.3,0.2c0.1,0.1,0.2,0.1,0.3,0.2c0.1,0.1,0.2,0.1,0.3,0.2
				c0.1,0.1,0.2,0.1,0.3,0.2c0.1,0.1,0.1,0.2,0.1,0.4l0,0c0,0.2,0,0.3-0.1,0.4c-0.1,0.1-0.2,0.2-0.4,0.3C-9.9-18-10.1-18-10.4-18z
				 M-6.5-18.8L-6.7-18c-0.1,0-0.2,0-0.2,0c-0.1,0-0.2,0-0.2,0c-0.1,0-0.1,0-0.2,0l0,0h-1.5l0-0.2l0.3-0.1c0,0,0-0.1,0-0.1
				c0-0.1,0-0.2,0-0.3s0-0.2,0-0.3l0,0v-0.8c0-0.1,0-0.2,0-0.4c0-0.1,0-0.2,0-0.3c0-0.1,0-0.1,0-0.1l0,0l-0.3-0.1l0-0.2h1.3l0,0.2
				L-8-20.5c0,0,0,0,0,0.1c0,0.1,0,0.1,0,0.3c0,0.1,0,0.2,0,0.4l0,0v0.8c0,0.2,0,0.3,0,0.4c0,0.1,0,0.2,0,0.2l0,0c0.1,0,0.1,0,0.2,0
				c0.1,0,0.1,0,0.2,0l0,0h0.2c0.1,0,0.1,0,0.2,0c0.1,0,0.1,0,0.1,0l0,0l0.3-0.5L-6.5-18.8z M-5.1-18h-1.2l0-0.2l0.3-0.1
				c0,0,0-0.1,0-0.1c0-0.1,0-0.1,0-0.3c0-0.1,0-0.2,0-0.4l0,0v-0.8c0-0.1,0-0.3,0-0.4c0-0.1,0-0.2,0-0.3c0-0.1,0-0.1,0-0.1l0,0
				l-0.3-0.1l0-0.2h1.2l0,0.2l-0.3,0.1c0,0,0,0.1,0,0.1c0,0.1,0,0.1,0,0.3c0,0.1,0,0.2,0,0.4l0,0v0.8c0,0.1,0,0.2,0,0.4
				c0,0.1,0,0.2,0,0.3c0,0.1,0,0.1,0,0.1l0,0l0.3,0.1L-5.1-18z M-3.4-18h-1.3l0-0.2l0.3-0.1c0,0,0-0.1,0-0.1c0-0.1,0-0.1,0-0.3
				c0-0.1,0-0.2,0-0.4l0,0l0-0.8c0-0.1,0-0.2,0-0.4c0-0.1,0-0.2,0-0.2c0-0.1,0-0.1,0-0.1l0,0l-0.3-0.1l0-0.2h1.5c0.1,0,0.1,0,0.2,0
				c0.1,0,0.2,0,0.2,0c0.1,0,0.1,0,0.2,0l0,0l0.1,0.7l-0.3,0l-0.2-0.4c0,0-0.1,0-0.1,0s-0.1,0-0.1,0l0,0h-0.4c-0.1,0-0.1,0-0.2,0
				c-0.1,0-0.1,0-0.1,0l0,0c0,0,0,0,0,0.1c0,0,0,0.1,0,0.1s0,0.1,0,0.2s0,0.2,0,0.3l0,0l0,1.1c0,0.1,0,0.2,0,0.3s0,0.1,0,0.2
				c0,0.1,0,0.1,0,0.1l0,0l0.4,0.1L-3.4-18z M-2.8-18.9h-0.3l-0.1-0.3c0,0-0.1,0-0.1,0c0,0-0.1,0-0.1,0l0,0h-0.3c-0.1,0-0.1,0-0.1,0
				c0,0-0.1,0-0.1,0l0,0v-0.3c0,0,0.1,0,0.1,0c0,0,0.1,0,0.1,0l0,0h0.3c0.1,0,0.1,0,0.2,0c0,0,0.1,0,0.1,0l0,0l0.1-0.3h0.3
				C-2.8-19.9-2.8-18.9-2.8-18.9z M0.3-18.7L0-18c-0.1,0-0.2,0-0.3,0s-0.2,0-0.3,0l0,0h-1.7l0-0.2l0.3-0.1c0,0,0-0.1,0-0.1
				c0-0.1,0-0.1,0-0.3c0-0.1,0-0.2,0-0.4l0,0v-0.8c0-0.1,0-0.3,0-0.4c0-0.1,0-0.2,0-0.3c0-0.1,0-0.1,0-0.1l0,0l-0.3-0.1l0-0.2h1.5
				c0.1,0,0.1,0,0.2,0c0.1,0,0.2,0,0.2,0c0.1,0,0.1,0,0.2,0l0,0l0.1,0.7l-0.3,0l-0.2-0.4c0,0-0.1,0-0.1,0c0,0-0.1,0-0.1,0l0,0H-1
				c-0.1,0-0.1,0-0.2,0c-0.1,0-0.1,0-0.1,0l0,0c0,0,0,0.1,0,0.1c0,0.1,0,0.1,0,0.2c0,0.1,0,0.2,0,0.3l0,0v1.1c0,0.1,0,0.2,0,0.3
				c0,0.1,0,0.1,0,0.2c0,0.1,0,0.1,0,0.1l0,0c0.1,0,0.1,0,0.2,0c0.1,0,0.1,0,0.2,0l0,0h0.3c0.1,0,0.1,0,0.2,0c0,0,0.1,0,0.1,0
				c0,0,0,0,0.1,0l0,0L0-18.8L0.3-18.7z M-0.3-19h-0.2l0-0.3c0,0-0.1,0-0.1,0c0,0-0.1,0-0.2,0l0,0h-0.3c-0.1,0-0.1,0-0.2,0
				c0,0-0.1,0-0.1,0l0,0v-0.3c0,0,0.1,0,0.1,0c0.1,0,0.1,0,0.2,0l0,0h0.3c0.1,0,0.1,0,0.2,0c0,0,0.1,0,0.1,0l0,0l0-0.3h0.2V-19z"/>
		</g>
	</g>
	<rect x="1.5" y="1.3" class="st3" width="23.8" height="7.6"/>
</g>
</svg>
